<svg xmlns="http://www.w3.org/2000/svg" width="1280" height="800" viewBox="0 0 1280 800" font-family="-apple-system,'Helvetica Neue',Arial,sans-serif">
  <rect width="1280" height="800" fill="#0B1220"/>
  <!-- window bar -->
  <rect width="1280" height="56" fill="#0E1626"/>
  <circle cx="36" cy="28" r="6" fill="#2A3550"/><circle cx="58" cy="28" r="6" fill="#2A3550"/><circle cx="80" cy="28" r="6" fill="#2A3550"/>
  <text x="120" y="33" fill="#8A93AD" font-size="15" font-weight="600">NEXT TAG · Reconciliation Console</text>
  <g transform="translate(1090,16)"><rect width="78" height="24" rx="12" fill="#0B2E18"/><circle cx="16" cy="12" r="4" fill="#22C55E"/><text x="30" y="16" fill="#22C55E" font-size="11" font-weight="700" letter-spacing="1">LIVE</text></g>
  <!-- sidebar -->
  <rect x="0" y="56" width="220" height="744" fill="#0C1322"/>
  <g fill="#1A2236"><rect x="24" y="96" width="172" height="38" rx="9" fill="#15213E"/><rect x="24" y="146" width="172" height="34" rx="9"/><rect x="24" y="190" width="172" height="34" rx="9"/><rect x="24" y="234" width="172" height="34" rx="9"/><rect x="24" y="278" width="172" height="34" rx="9"/></g>
  <rect x="40" y="108" width="14" height="14" rx="3" fill="#3B6FFF"/><text x="66" y="120" fill="#C7D0E0" font-size="13" font-weight="600">대조 엔진</text>
  <rect x="40" y="156" width="14" height="14" rx="3" fill="#33405E"/><text x="66" y="168" fill="#7E8AA3" font-size="13">권역 모니터링</text>
  <rect x="40" y="200" width="14" height="14" rx="3" fill="#33405E"/><text x="66" y="212" fill="#7E8AA3" font-size="13">표적 리콜</text>
  <rect x="40" y="244" width="14" height="14" rx="3" fill="#33405E"/><text x="66" y="256" fill="#7E8AA3" font-size="13">감사 원장</text>
  <rect x="40" y="288" width="14" height="14" rx="3" fill="#33405E"/><text x="66" y="300" fill="#7E8AA3" font-size="13">데이터 분석</text>
  <!-- main -->
  <text x="260" y="112" fill="#FFFFFF" font-size="24" font-weight="700">Shipment vs Market</text>
  <text x="260" y="140" fill="#7E8AA3" font-size="14">실시간 출고–시장 대조 · 최근 24시간</text>
  <!-- KPI cards -->
  <g>
    <rect x="260" y="168" width="316" height="120" rx="14" fill="#101A2E" stroke="#1C2740"/>
    <text x="284" y="206" fill="#7E8AA3" font-size="13">검증 스캔</text><text x="284" y="250" fill="#FFFFFF" font-size="34" font-weight="600">1,240</text><text x="284" y="274" fill="#22C55E" font-size="12">▲ 12.4% vs 어제</text>
    <rect x="592" y="168" width="316" height="120" rx="14" fill="#101A2E" stroke="#1C2740"/>
    <text x="616" y="206" fill="#7E8AA3" font-size="13">권역 이탈</text><text x="616" y="250" fill="#34DAFF" font-size="34" font-weight="600">0</text><text x="616" y="274" fill="#7E8AA3" font-size="12">탐지 없음 · 정상</text>
    <rect x="924" y="168" width="316" height="120" rx="14" fill="#101A2E" stroke="#1C2740"/>
    <text x="948" y="206" fill="#7E8AA3" font-size="13">병행유통 의심</text><text x="948" y="250" fill="#FFFFFF" font-size="34" font-weight="600">0</text><text x="948" y="274" fill="#7E8AA3" font-size="12">자동 차단 활성</text>
  </g>
  <!-- chart -->
  <rect x="260" y="312" width="648" height="240" rx="14" fill="#101A2E" stroke="#1C2740"/>
  <text x="284" y="346" fill="#C7D0E0" font-size="14" font-weight="600">스캔 추이</text>
  <polyline points="288,500 360,476 432,486 504,440 576,452 648,408 720,420 792,372 864,388" fill="none" stroke="#3B6FFF" stroke-width="3" stroke-linecap="round" stroke-linejoin="round"/>
  <polygon points="288,500 360,476 432,486 504,440 576,452 648,408 720,420 792,372 864,388 864,528 288,528" fill="#3B6FFF" opacity="0.10"/>
  <circle cx="864" cy="388" r="5" fill="#3B6FFF"/>
  <!-- side panel -->
  <rect x="924" y="312" width="316" height="240" rx="14" fill="#101A2E" stroke="#1C2740"/>
  <text x="948" y="346" fill="#C7D0E0" font-size="14" font-weight="600">최근 판정</text>
  <g font-size="12.5"><circle cx="956" cy="382" r="4" fill="#22C55E"/><text x="972" y="386" fill="#9AA4BC">VERIFIED · Seoul</text><circle cx="956" cy="416" r="4" fill="#22C55E"/><text x="972" y="420" fill="#9AA4BC">VERIFIED · Busan</text><circle cx="956" cy="450" r="4" fill="#22C55E"/><text x="972" y="454" fill="#9AA4BC">VERIFIED · Incheon</text><circle cx="956" cy="484" r="4" fill="#34DAFF"/><text x="972" y="488" fill="#9AA4BC">SCANNED · Daegu</text><circle cx="956" cy="518" r="4" fill="#22C55E"/><text x="972" y="522" fill="#9AA4BC">VERIFIED · Seoul</text></g>
  <!-- table -->
  <rect x="260" y="576" width="980" height="180" rx="14" fill="#101A2E" stroke="#1C2740"/>
  <g font-size="12" fill="#5C6880"><text x="288" y="608">SERIAL</text><text x="560" y="608">SHIPMENT</text><text x="780" y="608">MARKET</text><text x="1080" y="608">VERDICT</text></g>
  <line x1="276" y1="624" x2="1224" y2="624" stroke="#1C2740"/>
  <g font-size="13"><text x="288" y="654" fill="#C7D0E0" font-family="monospace">NT·9F-22A1-D04E</text><text x="560" y="654" fill="#9AA4BC">KR 수도권</text><text x="780" y="654" fill="#9AA4BC">Seoul</text><rect x="1080" y="640" width="86" height="22" rx="11" fill="#0B2E18"/><text x="1094" y="655" fill="#22C55E" font-size="11" font-weight="700">VERIFIED</text></g>
  <line x1="276" y1="678" x2="1224" y2="678" stroke="#161F36"/>
  <g font-size="13"><text x="288" y="708" fill="#C7D0E0" font-family="monospace">NT·4B-7C19-A2F0</text><text x="560" y="708" fill="#9AA4BC">KR 영남</text><text x="780" y="708" fill="#9AA4BC">Busan</text><rect x="1080" y="694" width="86" height="22" rx="11" fill="#0B2E18"/><text x="1094" y="709" fill="#22C55E" font-size="11" font-weight="700">VERIFIED</text></g>
  <line x1="276" y1="732" x2="1224" y2="732" stroke="#161F36"/>
</svg>
