<svg xmlns="http://www.w3.org/2000/svg" viewBox="0 0 640 360" width="640" height="360" font-family="Switzer,Pretendard,sans-serif">
<defs>
<linearGradient id="bg" x1="0" y1="0" x2="1" y2="1"><stop offset="0" stop-color="#0A1330"/><stop offset="1" stop-color="#002BFF"/></linearGradient>
<linearGradient id="acc" x1="0" y1="0" x2="1" y2="0"><stop offset="0" stop-color="#34DAFF"/><stop offset="1" stop-color="#2E7BFF"/></linearGradient>

</defs>
<rect width="640" height="360" fill="url(#bg)"/>
<g stroke="#FFFFFF" stroke-opacity=".06"><path d="M0 90H640M0 180H640M0 270H640M160 0V360M320 0V360M480 0V360"/></g>
<text x="60" y="58" fill="#fff" font-size="21" font-weight="700">위조 노출도 · 산업별</text><text x="60" y="82" fill="#fff" fill-opacity=".55" font-size="13">화장품이 적발 1위</text><rect x="118" y="200" width="46" height="70" rx="6" fill="#FFFFFF" fill-opacity=".22"/><text x="141" y="292" fill="#fff" fill-opacity="0.4" font-size="12" font-weight="500" text-anchor="middle">패션</text><rect x="194" y="174" width="46" height="96" rx="6" fill="#FFFFFF" fill-opacity=".22"/><text x="217" y="292" fill="#fff" fill-opacity="0.4" font-size="12" font-weight="500" text-anchor="middle">제약</text><rect x="270" y="150" width="46" height="120" rx="6" fill="#FFFFFF" fill-opacity=".22"/><text x="293" y="292" fill="#fff" fill-opacity="0.4" font-size="12" font-weight="500" text-anchor="middle">건기식</text><rect x="346" y="90" width="46" height="180" rx="6" fill="url(#acc)" fill-opacity="1"/><circle cx="369" cy="70" r="13" fill="#DC2626"/><path d="M363 70l4 4 8-8" stroke="#fff" stroke-width="2.4" fill="none" stroke-linecap="round" stroke-linejoin="round"/><text x="369" y="292" fill="#fff" fill-opacity="0.92" font-size="12" font-weight="700" text-anchor="middle">화장품</text><rect x="422" y="160" width="46" height="110" rx="6" fill="#FFFFFF" fill-opacity=".22"/><text x="445" y="292" fill="#fff" fill-opacity="0.4" font-size="12" font-weight="500" text-anchor="middle">리테일</text><rect x="498" y="186" width="46" height="84" rx="6" fill="#FFFFFF" fill-opacity=".22"/><text x="521" y="292" fill="#fff" fill-opacity="0.4" font-size="12" font-weight="500" text-anchor="middle">기타</text><line x1="60" y1="270" x2="600" y2="270" stroke="#fff" stroke-opacity=".25"/>
</svg>