<svg xmlns="http://www.w3.org/2000/svg" viewBox="0 0 640 360" width="640" height="360" font-family="Switzer,Pretendard,sans-serif">
<defs>
<linearGradient id="bg" x1="0" y1="0" x2="1" y2="1"><stop offset="0" stop-color="#0D0D0D"/><stop offset="1" stop-color="#1E2A45"/></linearGradient>
<linearGradient id="acc" x1="0" y1="0" x2="1" y2="0"><stop offset="0" stop-color="#34DAFF"/><stop offset="1" stop-color="#2E7BFF"/></linearGradient>

</defs>
<rect width="640" height="360" fill="url(#bg)"/>
<g stroke="#FFFFFF" stroke-opacity=".06"><path d="M0 90H640M0 180H640M0 270H640M160 0V360M320 0V360M480 0V360"/></g>
<text x="60" y="60" fill="#fff" font-size="21" font-weight="700">공급망 통제 <tspan fill="#34DAFF">용어집</tspan></text><line x1="320" y1="180" x2="180" y2="110" stroke="#fff" stroke-opacity=".18"/><line x1="320" y1="180" x2="470" y2="120" stroke="#fff" stroke-opacity=".18"/><line x1="320" y1="180" x2="140" y2="240" stroke="#fff" stroke-opacity=".18"/><line x1="320" y1="180" x2="500" y2="250" stroke="#fff" stroke-opacity=".18"/><line x1="320" y1="180" x2="320" y2="80" stroke="#fff" stroke-opacity=".18"/><line x1="320" y1="180" x2="320" y2="290" stroke="#fff" stroke-opacity=".18"/><line x1="180" y1="110" x2="140" y2="240" stroke="#fff" stroke-opacity=".18"/><line x1="470" y1="120" x2="500" y2="250" stroke="#fff" stroke-opacity=".18"/><line x1="180" y1="110" x2="320" y2="80" stroke="#fff" stroke-opacity=".18"/><line x1="470" y1="120" x2="320" y2="80" stroke="#fff" stroke-opacity=".18"/><circle cx="320" cy="180" r="17" fill="url(#acc)" fill-opacity="1"/><circle cx="180" cy="110" r="10" fill="#fff" fill-opacity="0.85"/><text x="180" y="94" fill="#fff" fill-opacity=".7" font-size="10" text-anchor="middle">WORM</text><circle cx="470" cy="120" r="10" fill="#fff" fill-opacity="0.85"/><text x="470" y="104" fill="#fff" fill-opacity=".7" font-size="10" text-anchor="middle">대조엔진</text><circle cx="140" cy="240" r="10" fill="#fff" fill-opacity="0.85"/><text x="140" y="224" fill="#fff" fill-opacity=".7" font-size="10" text-anchor="middle">권역</text><circle cx="500" cy="250" r="10" fill="#fff" fill-opacity="0.85"/><text x="500" y="234" fill="#fff" fill-opacity=".7" font-size="10" text-anchor="middle">리콜</text><circle cx="320" cy="80" r="10" fill="#fff" fill-opacity="0.85"/><text x="320" y="64" fill="#fff" fill-opacity=".7" font-size="10" text-anchor="middle">QR</text><circle cx="320" cy="290" r="10" fill="#fff" fill-opacity="0.85"/><text x="320" y="274" fill="#fff" fill-opacity=".7" font-size="10" text-anchor="middle">LOT</text><text x="320" y="184" fill="#0D0D0D" font-size="9" font-weight="700" text-anchor="middle">TERMS</text>
</svg>