<svg xmlns="http://www.w3.org/2000/svg" viewBox="0 0 640 360" width="640" height="360" font-family="Switzer,Pretendard,sans-serif">
<defs>
<linearGradient id="bg" x1="0" y1="0" x2="1" y2="1"><stop offset="0" stop-color="#111A2E"/><stop offset="1" stop-color="#5B2BE0"/></linearGradient>
<linearGradient id="acc" x1="0" y1="0" x2="1" y2="0"><stop offset="0" stop-color="#34DAFF"/><stop offset="1" stop-color="#2E7BFF"/></linearGradient>

</defs>
<rect width="640" height="360" fill="url(#bg)"/>
<g stroke="#FFFFFF" stroke-opacity=".06"><path d="M0 90H640M0 180H640M0 270H640M160 0V360M320 0V360M480 0V360"/></g>
<text x="60" y="64" fill="#fff" font-size="21" font-weight="700">스캔이 곧 <tspan fill="#34DAFF">1st-party 자산</tspan></text>
<g>
<circle cx="120" cy="150" r="7" fill="url(#acc)"/><text x="120" y="185" fill="#fff" fill-opacity=".6" font-size="11" text-anchor="middle">스캔</text>
<path d="M132 150C200 150 210 180 250 180" stroke="#34DAFF" stroke-width="2" fill="none" stroke-dasharray="3 4"/>
<rect x="250" y="120" width="150" height="120" rx="12" fill="#fff" fill-opacity=".07" stroke="#fff" stroke-opacity=".2"/>
<rect x="266" y="138" width="118" height="20" rx="5" fill="#34DAFF" fill-opacity=".85"/><rect x="266" y="166" width="118" height="20" rx="5" fill="#fff" fill-opacity=".28"/><rect x="266" y="194" width="80" height="20" rx="5" fill="#fff" fill-opacity=".18"/>
<text x="325" y="262" fill="#fff" fill-opacity=".6" font-size="11" text-anchor="middle">세그먼트 데이터</text>
<path d="M400 180C450 180 460 180 490 180" stroke="#fff" stroke-opacity=".3" stroke-width="2" fill="none"/>
<g transform="translate(496 150)"><ellipse cx="30" cy="8" rx="30" ry="9" fill="url(#acc)"/><path d="M0 8v44c0 5 13 9 30 9s30-4 30-9V8" fill="url(#acc)" fill-opacity=".55"/><ellipse cx="30" cy="8" rx="30" ry="9" fill="none" stroke="#fff" stroke-opacity=".3"/></g><text x="526" y="238" fill="#fff" fill-opacity=".6" font-size="11" text-anchor="middle">CRM</text>
</g>
</svg>