<svg xmlns="http://www.w3.org/2000/svg" viewBox="0 0 640 360" width="640" height="360" font-family="Switzer,Pretendard,sans-serif">
<defs>
<linearGradient id="bg" x1="0" y1="0" x2="1" y2="1"><stop offset="0" stop-color="#081B2E"/><stop offset="1" stop-color="#0B63C4"/></linearGradient>
<linearGradient id="acc" x1="0" y1="0" x2="1" y2="0"><stop offset="0" stop-color="#34DAFF"/><stop offset="1" stop-color="#2E7BFF"/></linearGradient>

</defs>
<rect width="640" height="360" fill="url(#bg)"/>
<g stroke="#FFFFFF" stroke-opacity=".06"><path d="M0 90H640M0 180H640M0 270H640M160 0V360M320 0V360M480 0V360"/></g>
<g font-size="12" font-weight="700">
<rect x="52" y="96" width="150" height="52" rx="10" fill="#fff" fill-opacity=".1" stroke="#fff" stroke-opacity=".3"/><text x="66" y="120" fill="#34DAFF" font-size="10">SHIPMENT TRUTH</text><text x="66" y="138" fill="#fff" font-size="12">출고 사실</text>
<rect x="52" y="212" width="150" height="52" rx="10" fill="#fff" fill-opacity=".1" stroke="#fff" stroke-opacity=".3"/><text x="66" y="236" fill="#7FB2FF" font-size="10">MARKET TRUTH</text><text x="66" y="254" fill="#fff" font-size="12">시장 사실</text>
<path d="M202 122C270 122 270 172 300 178" stroke="#34DAFF" stroke-width="2.5" fill="none"/>
<path d="M202 238C270 238 270 188 300 182" stroke="#7FB2FF" stroke-width="2.5" fill="none"/>
<rect x="300" y="150" width="60" height="60" rx="10" fill="#0D0D0D" stroke="#fff" stroke-opacity=".35" transform="rotate(45 330 180)"/>
<text x="330" y="176" fill="#fff" font-size="10" text-anchor="middle" font-weight="700">대조</text><text x="330" y="190" fill="#34DAFF" font-size="8" text-anchor="middle">ENGINE</text>
<path d="M360 168C420 160 430 140 470 132" stroke="#16A34A" stroke-width="2.5" fill="none"/>
<path d="M360 192C420 200 430 226 470 234" stroke="#DC2626" stroke-width="2.5" fill="none"/>
<rect x="470" y="112" width="118" height="42" rx="9" fill="#16A34A" fill-opacity=".16" stroke="#16A34A" stroke-opacity=".6"/><circle cx="490" cy="133" r="9" fill="#16A34A"/><path d="M485 133l4 4 6-7" stroke="#fff" stroke-width="2" fill="none" stroke-linecap="round" stroke-linejoin="round"/><text x="506" y="138" fill="#fff" font-size="12">VERIFIED</text>
<rect x="470" y="214" width="118" height="42" rx="9" fill="#DC2626" fill-opacity=".16" stroke="#DC2626" stroke-opacity=".6"/><circle cx="490" cy="235" r="9" fill="#DC2626"/><text x="490" y="239" fill="#fff" font-size="12" text-anchor="middle" font-weight="700">!</text><text x="506" y="240" fill="#fff" font-size="12">SUSPECT</text>
</g>
</svg>