<svg xmlns="http://www.w3.org/2000/svg" viewBox="0 0 640 360" width="640" height="360" font-family="Switzer,Pretendard,sans-serif">
<defs>
<linearGradient id="bg" x1="0" y1="0" x2="1" y2="1"><stop offset="0" stop-color="#081B2E"/><stop offset="1" stop-color="#0B63C4"/></linearGradient>
<linearGradient id="acc" x1="0" y1="0" x2="1" y2="0"><stop offset="0" stop-color="#34DAFF"/><stop offset="1" stop-color="#2E7BFF"/></linearGradient>

</defs>
<rect width="640" height="360" fill="url(#bg)"/>
<g stroke="#FFFFFF" stroke-opacity=".06"><path d="M0 90H640M0 180H640M0 270H640M160 0V360M320 0V360M480 0V360"/></g>
<text x="60" y="66" fill="#fff" font-size="21" font-weight="700">봉인 라벨에 <tspan fill="#34DAFF">난수 QR</tspan> 한 칸</text>
<rect x="150" y="108" width="150" height="150" rx="14" fill="#fff"/><rect x="163.0" y="121.0" width="9.5" height="9.5" fill="#0D0D0D"/><rect x="172.5" y="121.0" width="9.5" height="9.5" fill="#0D0D0D"/><rect x="182.0" y="121.0" width="9.5" height="9.5" fill="#0D0D0D"/><rect x="191.5" y="121.0" width="9.5" height="9.5" fill="#0D0D0D"/><rect x="201.0" y="121.0" width="9.5" height="9.5" fill="#0D0D0D"/><rect x="210.5" y="121.0" width="9.5" height="9.5" fill="#0D0D0D"/><rect x="220.0" y="121.0" width="9.5" height="9.5" fill="#0D0D0D"/><rect x="239.0" y="121.0" width="9.5" height="9.5" fill="#0D0D0D"/><rect x="248.5" y="121.0" width="9.5" height="9.5" fill="#0D0D0D"/><rect x="258.0" y="121.0" width="9.5" height="9.5" fill="#0D0D0D"/><rect x="267.5" y="121.0" width="9.5" height="9.5" fill="#0D0D0D"/><rect x="277.0" y="121.0" width="9.5" height="9.5" fill="#0D0D0D"/><rect x="163.0" y="130.5" width="9.5" height="9.5" fill="#0D0D0D"/><rect x="220.0" y="130.5" width="9.5" height="9.5" fill="#0D0D0D"/><rect x="239.0" y="130.5" width="9.5" height="9.5" fill="#0D0D0D"/><rect x="277.0" y="130.5" width="9.5" height="9.5" fill="#0D0D0D"/><rect x="163.0" y="140.0" width="9.5" height="9.5" fill="#0D0D0D"/><rect x="182.0" y="140.0" width="9.5" height="9.5" fill="#0D0D0D"/><rect x="191.5" y="140.0" width="9.5" height="9.5" fill="#0D0D0D"/><rect x="201.0" y="140.0" width="9.5" height="9.5" fill="#0D0D0D"/><rect x="220.0" y="140.0" width="9.5" height="9.5" fill="#0D0D0D"/><rect x="239.0" y="140.0" width="9.5" height="9.5" fill="#0D0D0D"/><rect x="248.5" y="140.0" width="9.5" height="9.5" fill="#0D0D0D"/><rect x="258.0" y="140.0" width="9.5" height="9.5" fill="#0D0D0D"/><rect x="277.0" y="140.0" width="9.5" height="9.5" fill="#0D0D0D"/><rect x="163.0" y="149.5" width="9.5" height="9.5" fill="#0D0D0D"/><rect x="182.0" y="149.5" width="9.5" height="9.5" fill="#0D0D0D"/><rect x="191.5" y="149.5" width="9.5" height="9.5" fill="#0D0D0D"/><rect x="201.0" y="149.5" width="9.5" height="9.5" fill="#0D0D0D"/><rect x="220.0" y="149.5" width="9.5" height="9.5" fill="#0D0D0D"/><rect x="258.0" y="149.5" width="9.5" height="9.5" fill="#0D0D0D"/><rect x="277.0" y="149.5" width="9.5" height="9.5" fill="#0D0D0D"/><rect x="163.0" y="159.0" width="9.5" height="9.5" fill="#0D0D0D"/><rect x="182.0" y="159.0" width="9.5" height="9.5" fill="#0D0D0D"/><rect x="191.5" y="159.0" width="9.5" height="9.5" fill="#0D0D0D"/><rect x="201.0" y="159.0" width="9.5" height="9.5" fill="#0D0D0D"/><rect x="220.0" y="159.0" width="9.5" height="9.5" fill="#0D0D0D"/><rect x="239.0" y="159.0" width="9.5" height="9.5" fill="#0D0D0D"/><rect x="248.5" y="159.0" width="9.5" height="9.5" fill="#0D0D0D"/><rect x="258.0" y="159.0" width="9.5" height="9.5" fill="#0D0D0D"/><rect x="277.0" y="159.0" width="9.5" height="9.5" fill="#0D0D0D"/><rect x="163.0" y="168.5" width="9.5" height="9.5" fill="#0D0D0D"/><rect x="220.0" y="168.5" width="9.5" height="9.5" fill="#0D0D0D"/><rect x="239.0" y="168.5" width="9.5" height="9.5" fill="#0D0D0D"/><rect x="277.0" y="168.5" width="9.5" height="9.5" fill="#0D0D0D"/><rect x="163.0" y="178.0" width="9.5" height="9.5" fill="#0D0D0D"/><rect x="172.5" y="178.0" width="9.5" height="9.5" fill="#0D0D0D"/><rect x="182.0" y="178.0" width="9.5" height="9.5" fill="#0D0D0D"/><rect x="191.5" y="178.0" width="9.5" height="9.5" fill="#0D0D0D"/><rect x="201.0" y="178.0" width="9.5" height="9.5" fill="#0D0D0D"/><rect x="210.5" y="178.0" width="9.5" height="9.5" fill="#0D0D0D"/><rect x="220.0" y="178.0" width="9.5" height="9.5" fill="#0D0D0D"/><rect x="239.0" y="178.0" width="9.5" height="9.5" fill="#0D0D0D"/><rect x="248.5" y="178.0" width="9.5" height="9.5" fill="#0D0D0D"/><rect x="258.0" y="178.0" width="9.5" height="9.5" fill="#0D0D0D"/><rect x="267.5" y="178.0" width="9.5" height="9.5" fill="#0D0D0D"/><rect x="277.0" y="178.0" width="9.5" height="9.5" fill="#0D0D0D"/><rect x="239.0" y="187.5" width="9.5" height="9.5" fill="#0D0D0D"/><rect x="248.5" y="187.5" width="9.5" height="9.5" fill="#0D0D0D"/><rect x="163.0" y="197.0" width="9.5" height="9.5" fill="#0D0D0D"/><rect x="172.5" y="197.0" width="9.5" height="9.5" fill="#0D0D0D"/><rect x="191.5" y="197.0" width="9.5" height="9.5" fill="#0D0D0D"/><rect x="210.5" y="197.0" width="9.5" height="9.5" fill="#0D0D0D"/><rect x="220.0" y="197.0" width="9.5" height="9.5" fill="#0D0D0D"/><rect x="239.0" y="197.0" width="9.5" height="9.5" fill="#0D0D0D"/><rect x="258.0" y="197.0" width="9.5" height="9.5" fill="#0D0D0D"/><rect x="267.5" y="197.0" width="9.5" height="9.5" fill="#0D0D0D"/><rect x="182.0" y="206.5" width="9.5" height="9.5" fill="#0D0D0D"/><rect x="201.0" y="206.5" width="9.5" height="9.5" fill="#0D0D0D"/><rect x="210.5" y="206.5" width="9.5" height="9.5" fill="#0D0D0D"/><rect x="248.5" y="206.5" width="9.5" height="9.5" fill="#0D0D0D"/><rect x="267.5" y="206.5" width="9.5" height="9.5" fill="#0D0D0D"/><rect x="277.0" y="206.5" width="9.5" height="9.5" fill="#0D0D0D"/><rect x="163.0" y="216.0" width="9.5" height="9.5" fill="#0D0D0D"/><rect x="172.5" y="216.0" width="9.5" height="9.5" fill="#0D0D0D"/><rect x="182.0" y="216.0" width="9.5" height="9.5" fill="#0D0D0D"/><rect x="191.5" y="216.0" width="9.5" height="9.5" fill="#0D0D0D"/><rect x="210.5" y="216.0" width="9.5" height="9.5" fill="#0D0D0D"/><rect x="229.5" y="216.0" width="9.5" height="9.5" fill="#0D0D0D"/><rect x="239.0" y="216.0" width="9.5" height="9.5" fill="#0D0D0D"/><rect x="267.5" y="216.0" width="9.5" height="9.5" fill="#0D0D0D"/><rect x="172.5" y="225.5" width="9.5" height="9.5" fill="#0D0D0D"/><rect x="201.0" y="225.5" width="9.5" height="9.5" fill="#0D0D0D"/><rect x="220.0" y="225.5" width="9.5" height="9.5" fill="#0D0D0D"/><rect x="239.0" y="225.5" width="9.5" height="9.5" fill="#0D0D0D"/><rect x="248.5" y="225.5" width="9.5" height="9.5" fill="#0D0D0D"/><rect x="258.0" y="225.5" width="9.5" height="9.5" fill="#0D0D0D"/><rect x="163.0" y="235.0" width="9.5" height="9.5" fill="#0D0D0D"/><rect x="172.5" y="235.0" width="9.5" height="9.5" fill="#0D0D0D"/><rect x="182.0" y="235.0" width="9.5" height="9.5" fill="#0D0D0D"/><rect x="210.5" y="235.0" width="9.5" height="9.5" fill="#0D0D0D"/><rect x="220.0" y="235.0" width="9.5" height="9.5" fill="#0D0D0D"/><rect x="239.0" y="235.0" width="9.5" height="9.5" fill="#0D0D0D"/><rect x="248.5" y="235.0" width="9.5" height="9.5" fill="#0D0D0D"/><rect x="267.5" y="235.0" width="9.5" height="9.5" fill="#0D0D0D"/><rect x="277.0" y="235.0" width="9.5" height="9.5" fill="#0D0D0D"/>
<circle cx="300" cy="252" r="19" fill="#16A34A"/><path d="M291 252l6 6 11-12" stroke="#fff" stroke-width="3" fill="none" stroke-linecap="round" stroke-linejoin="round"/>
<g transform="translate(400 120)"><rect x="0" y="0" width="120" height="200" rx="20" fill="#0D0D0D" stroke="#fff" stroke-opacity=".3"/><rect x="12" y="26" width="96" height="120" rx="8" fill="#fff" fill-opacity=".08"/><rect x="34" y="150" width="52" height="34" rx="8" fill="url(#acc)"/><text x="60" y="172" fill="#fff" font-size="11" text-anchor="middle" font-weight="700">VERIFIED</text>
<g transform="translate(40 52)"><rect x="0.0" y="0.0" width="5.4" height="5.4" fill="#0D0D0D"/><rect x="5.4" y="0.0" width="5.4" height="5.4" fill="#0D0D0D"/><rect x="10.8" y="0.0" width="5.4" height="5.4" fill="#0D0D0D"/><rect x="16.200000000000003" y="0.0" width="5.4" height="5.4" fill="#0D0D0D"/><rect x="21.6" y="0.0" width="5.4" height="5.4" fill="#0D0D0D"/><rect x="27.0" y="0.0" width="5.4" height="5.4" fill="#0D0D0D"/><rect x="32.400000000000006" y="0.0" width="5.4" height="5.4" fill="#0D0D0D"/><rect x="43.2" y="0.0" width="5.4" height="5.4" fill="#0D0D0D"/><rect x="48.6" y="0.0" width="5.4" height="5.4" fill="#0D0D0D"/><rect x="54.0" y="0.0" width="5.4" height="5.4" fill="#0D0D0D"/><rect x="59.400000000000006" y="0.0" width="5.4" height="5.4" fill="#0D0D0D"/><rect x="64.80000000000001" y="0.0" width="5.4" height="5.4" fill="#0D0D0D"/><rect x="0.0" y="5.4" width="5.4" height="5.4" fill="#0D0D0D"/><rect x="32.400000000000006" y="5.4" width="5.4" height="5.4" fill="#0D0D0D"/><rect x="43.2" y="5.4" width="5.4" height="5.4" fill="#0D0D0D"/><rect x="64.80000000000001" y="5.4" width="5.4" height="5.4" fill="#0D0D0D"/><rect x="0.0" y="10.8" width="5.4" height="5.4" fill="#0D0D0D"/><rect x="10.8" y="10.8" width="5.4" height="5.4" fill="#0D0D0D"/><rect x="16.200000000000003" y="10.8" width="5.4" height="5.4" fill="#0D0D0D"/><rect x="21.6" y="10.8" width="5.4" height="5.4" fill="#0D0D0D"/><rect x="32.400000000000006" y="10.8" width="5.4" height="5.4" fill="#0D0D0D"/><rect x="43.2" y="10.8" width="5.4" height="5.4" fill="#0D0D0D"/><rect x="48.6" y="10.8" width="5.4" height="5.4" fill="#0D0D0D"/><rect x="54.0" y="10.8" width="5.4" height="5.4" fill="#0D0D0D"/><rect x="64.80000000000001" y="10.8" width="5.4" height="5.4" fill="#0D0D0D"/><rect x="0.0" y="16.200000000000003" width="5.4" height="5.4" fill="#0D0D0D"/><rect x="10.8" y="16.200000000000003" width="5.4" height="5.4" fill="#0D0D0D"/><rect x="16.200000000000003" y="16.200000000000003" width="5.4" height="5.4" fill="#0D0D0D"/><rect x="21.6" y="16.200000000000003" width="5.4" height="5.4" fill="#0D0D0D"/><rect x="32.400000000000006" y="16.200000000000003" width="5.4" height="5.4" fill="#0D0D0D"/><rect x="54.0" y="16.200000000000003" width="5.4" height="5.4" fill="#0D0D0D"/><rect x="64.80000000000001" y="16.200000000000003" width="5.4" height="5.4" fill="#0D0D0D"/><rect x="0.0" y="21.6" width="5.4" height="5.4" fill="#0D0D0D"/><rect x="10.8" y="21.6" width="5.4" height="5.4" fill="#0D0D0D"/><rect x="16.200000000000003" y="21.6" width="5.4" height="5.4" fill="#0D0D0D"/><rect x="21.6" y="21.6" width="5.4" height="5.4" fill="#0D0D0D"/><rect x="32.400000000000006" y="21.6" width="5.4" height="5.4" fill="#0D0D0D"/><rect x="43.2" y="21.6" width="5.4" height="5.4" fill="#0D0D0D"/><rect x="48.6" y="21.6" width="5.4" height="5.4" fill="#0D0D0D"/><rect x="54.0" y="21.6" width="5.4" height="5.4" fill="#0D0D0D"/><rect x="64.80000000000001" y="21.6" width="5.4" height="5.4" fill="#0D0D0D"/><rect x="0.0" y="27.0" width="5.4" height="5.4" fill="#0D0D0D"/><rect x="32.400000000000006" y="27.0" width="5.4" height="5.4" fill="#0D0D0D"/><rect x="43.2" y="27.0" width="5.4" height="5.4" fill="#0D0D0D"/><rect x="64.80000000000001" y="27.0" width="5.4" height="5.4" fill="#0D0D0D"/><rect x="0.0" y="32.400000000000006" width="5.4" height="5.4" fill="#0D0D0D"/><rect x="5.4" y="32.400000000000006" width="5.4" height="5.4" fill="#0D0D0D"/><rect x="10.8" y="32.400000000000006" width="5.4" height="5.4" fill="#0D0D0D"/><rect x="16.200000000000003" y="32.400000000000006" width="5.4" height="5.4" fill="#0D0D0D"/><rect x="21.6" y="32.400000000000006" width="5.4" height="5.4" fill="#0D0D0D"/><rect x="27.0" y="32.400000000000006" width="5.4" height="5.4" fill="#0D0D0D"/><rect x="32.400000000000006" y="32.400000000000006" width="5.4" height="5.4" fill="#0D0D0D"/><rect x="43.2" y="32.400000000000006" width="5.4" height="5.4" fill="#0D0D0D"/><rect x="48.6" y="32.400000000000006" width="5.4" height="5.4" fill="#0D0D0D"/><rect x="54.0" y="32.400000000000006" width="5.4" height="5.4" fill="#0D0D0D"/><rect x="59.400000000000006" y="32.400000000000006" width="5.4" height="5.4" fill="#0D0D0D"/><rect x="64.80000000000001" y="32.400000000000006" width="5.4" height="5.4" fill="#0D0D0D"/><rect x="43.2" y="37.800000000000004" width="5.4" height="5.4" fill="#0D0D0D"/><rect x="48.6" y="37.800000000000004" width="5.4" height="5.4" fill="#0D0D0D"/><rect x="0.0" y="43.2" width="5.4" height="5.4" fill="#0D0D0D"/><rect x="5.4" y="43.2" width="5.4" height="5.4" fill="#0D0D0D"/><rect x="16.200000000000003" y="43.2" width="5.4" height="5.4" fill="#0D0D0D"/><rect x="27.0" y="43.2" width="5.4" height="5.4" fill="#0D0D0D"/><rect x="32.400000000000006" y="43.2" width="5.4" height="5.4" fill="#0D0D0D"/><rect x="43.2" y="43.2" width="5.4" height="5.4" fill="#0D0D0D"/><rect x="54.0" y="43.2" width="5.4" height="5.4" fill="#0D0D0D"/><rect x="59.400000000000006" y="43.2" width="5.4" height="5.4" fill="#0D0D0D"/><rect x="10.8" y="48.6" width="5.4" height="5.4" fill="#0D0D0D"/><rect x="21.6" y="48.6" width="5.4" height="5.4" fill="#0D0D0D"/><rect x="27.0" y="48.6" width="5.4" height="5.4" fill="#0D0D0D"/><rect x="48.6" y="48.6" width="5.4" height="5.4" fill="#0D0D0D"/><rect x="59.400000000000006" y="48.6" width="5.4" height="5.4" fill="#0D0D0D"/><rect x="64.80000000000001" y="48.6" width="5.4" height="5.4" fill="#0D0D0D"/><rect x="0.0" y="54.0" width="5.4" height="5.4" fill="#0D0D0D"/><rect x="5.4" y="54.0" width="5.4" height="5.4" fill="#0D0D0D"/><rect x="10.8" y="54.0" width="5.4" height="5.4" fill="#0D0D0D"/><rect x="16.200000000000003" y="54.0" width="5.4" height="5.4" fill="#0D0D0D"/><rect x="27.0" y="54.0" width="5.4" height="5.4" fill="#0D0D0D"/><rect x="37.800000000000004" y="54.0" width="5.4" height="5.4" fill="#0D0D0D"/><rect x="43.2" y="54.0" width="5.4" height="5.4" fill="#0D0D0D"/><rect x="59.400000000000006" y="54.0" width="5.4" height="5.4" fill="#0D0D0D"/><rect x="5.4" y="59.400000000000006" width="5.4" height="5.4" fill="#0D0D0D"/><rect x="21.6" y="59.400000000000006" width="5.4" height="5.4" fill="#0D0D0D"/><rect x="32.400000000000006" y="59.400000000000006" width="5.4" height="5.4" fill="#0D0D0D"/><rect x="43.2" y="59.400000000000006" width="5.4" height="5.4" fill="#0D0D0D"/><rect x="48.6" y="59.400000000000006" width="5.4" height="5.4" fill="#0D0D0D"/><rect x="54.0" y="59.400000000000006" width="5.4" height="5.4" fill="#0D0D0D"/><rect x="0.0" y="64.80000000000001" width="5.4" height="5.4" fill="#0D0D0D"/><rect x="5.4" y="64.80000000000001" width="5.4" height="5.4" fill="#0D0D0D"/><rect x="10.8" y="64.80000000000001" width="5.4" height="5.4" fill="#0D0D0D"/><rect x="27.0" y="64.80000000000001" width="5.4" height="5.4" fill="#0D0D0D"/><rect x="32.400000000000006" y="64.80000000000001" width="5.4" height="5.4" fill="#0D0D0D"/><rect x="43.2" y="64.80000000000001" width="5.4" height="5.4" fill="#0D0D0D"/><rect x="48.6" y="64.80000000000001" width="5.4" height="5.4" fill="#0D0D0D"/><rect x="59.400000000000006" y="64.80000000000001" width="5.4" height="5.4" fill="#0D0D0D"/><rect x="64.80000000000001" y="64.80000000000001" width="5.4" height="5.4" fill="#0D0D0D"/></g><rect x="40" y="52" width="76" height="76" fill="none"/><rect x="38" y="50" width="80" height="80" rx="6" fill="#fff"/><g transform="translate(46 58)"><rect x="0.0" y="0.0" width="4.9" height="4.9" fill="#0D0D0D"/><rect x="4.9" y="0.0" width="4.9" height="4.9" fill="#0D0D0D"/><rect x="9.8" y="0.0" width="4.9" height="4.9" fill="#0D0D0D"/><rect x="14.700000000000001" y="0.0" width="4.9" height="4.9" fill="#0D0D0D"/><rect x="19.6" y="0.0" width="4.9" height="4.9" fill="#0D0D0D"/><rect x="24.5" y="0.0" width="4.9" height="4.9" fill="#0D0D0D"/><rect x="29.400000000000002" y="0.0" width="4.9" height="4.9" fill="#0D0D0D"/><rect x="39.2" y="0.0" width="4.9" height="4.9" fill="#0D0D0D"/><rect x="44.1" y="0.0" width="4.9" height="4.9" fill="#0D0D0D"/><rect x="49.0" y="0.0" width="4.9" height="4.9" fill="#0D0D0D"/><rect x="53.900000000000006" y="0.0" width="4.9" height="4.9" fill="#0D0D0D"/><rect x="58.800000000000004" y="0.0" width="4.9" height="4.9" fill="#0D0D0D"/><rect x="0.0" y="4.9" width="4.9" height="4.9" fill="#0D0D0D"/><rect x="29.400000000000002" y="4.9" width="4.9" height="4.9" fill="#0D0D0D"/><rect x="39.2" y="4.9" width="4.9" height="4.9" fill="#0D0D0D"/><rect x="58.800000000000004" y="4.9" width="4.9" height="4.9" fill="#0D0D0D"/><rect x="0.0" y="9.8" width="4.9" height="4.9" fill="#0D0D0D"/><rect x="9.8" y="9.8" width="4.9" height="4.9" fill="#0D0D0D"/><rect x="14.700000000000001" y="9.8" width="4.9" height="4.9" fill="#0D0D0D"/><rect x="19.6" y="9.8" width="4.9" height="4.9" fill="#0D0D0D"/><rect x="29.400000000000002" y="9.8" width="4.9" height="4.9" fill="#0D0D0D"/><rect x="39.2" y="9.8" width="4.9" height="4.9" fill="#0D0D0D"/><rect x="44.1" y="9.8" width="4.9" height="4.9" fill="#0D0D0D"/><rect x="49.0" y="9.8" width="4.9" height="4.9" fill="#0D0D0D"/><rect x="58.800000000000004" y="9.8" width="4.9" height="4.9" fill="#0D0D0D"/><rect x="0.0" y="14.700000000000001" width="4.9" height="4.9" fill="#0D0D0D"/><rect x="9.8" y="14.700000000000001" width="4.9" height="4.9" fill="#0D0D0D"/><rect x="14.700000000000001" y="14.700000000000001" width="4.9" height="4.9" fill="#0D0D0D"/><rect x="19.6" y="14.700000000000001" width="4.9" height="4.9" fill="#0D0D0D"/><rect x="29.400000000000002" y="14.700000000000001" width="4.9" height="4.9" fill="#0D0D0D"/><rect x="49.0" y="14.700000000000001" width="4.9" height="4.9" fill="#0D0D0D"/><rect x="58.800000000000004" y="14.700000000000001" width="4.9" height="4.9" fill="#0D0D0D"/><rect x="0.0" y="19.6" width="4.9" height="4.9" fill="#0D0D0D"/><rect x="9.8" y="19.6" width="4.9" height="4.9" fill="#0D0D0D"/><rect x="14.700000000000001" y="19.6" width="4.9" height="4.9" fill="#0D0D0D"/><rect x="19.6" y="19.6" width="4.9" height="4.9" fill="#0D0D0D"/><rect x="29.400000000000002" y="19.6" width="4.9" height="4.9" fill="#0D0D0D"/><rect x="39.2" y="19.6" width="4.9" height="4.9" fill="#0D0D0D"/><rect x="44.1" y="19.6" width="4.9" height="4.9" fill="#0D0D0D"/><rect x="49.0" y="19.6" width="4.9" height="4.9" fill="#0D0D0D"/><rect x="58.800000000000004" y="19.6" width="4.9" height="4.9" fill="#0D0D0D"/><rect x="0.0" y="24.5" width="4.9" height="4.9" fill="#0D0D0D"/><rect x="29.400000000000002" y="24.5" width="4.9" height="4.9" fill="#0D0D0D"/><rect x="39.2" y="24.5" width="4.9" height="4.9" fill="#0D0D0D"/><rect x="58.800000000000004" y="24.5" width="4.9" height="4.9" fill="#0D0D0D"/><rect x="0.0" y="29.400000000000002" width="4.9" height="4.9" fill="#0D0D0D"/><rect x="4.9" y="29.400000000000002" width="4.9" height="4.9" fill="#0D0D0D"/><rect x="9.8" y="29.400000000000002" width="4.9" height="4.9" fill="#0D0D0D"/><rect x="14.700000000000001" y="29.400000000000002" width="4.9" height="4.9" fill="#0D0D0D"/><rect x="19.6" y="29.400000000000002" width="4.9" height="4.9" fill="#0D0D0D"/><rect x="24.5" y="29.400000000000002" width="4.9" height="4.9" fill="#0D0D0D"/><rect x="29.400000000000002" y="29.400000000000002" width="4.9" height="4.9" fill="#0D0D0D"/><rect x="39.2" y="29.400000000000002" width="4.9" height="4.9" fill="#0D0D0D"/><rect x="44.1" y="29.400000000000002" width="4.9" height="4.9" fill="#0D0D0D"/><rect x="49.0" y="29.400000000000002" width="4.9" height="4.9" fill="#0D0D0D"/><rect x="53.900000000000006" y="29.400000000000002" width="4.9" height="4.9" fill="#0D0D0D"/><rect x="58.800000000000004" y="29.400000000000002" width="4.9" height="4.9" fill="#0D0D0D"/><rect x="39.2" y="34.300000000000004" width="4.9" height="4.9" fill="#0D0D0D"/><rect x="44.1" y="34.300000000000004" width="4.9" height="4.9" fill="#0D0D0D"/><rect x="0.0" y="39.2" width="4.9" height="4.9" fill="#0D0D0D"/><rect x="4.9" y="39.2" width="4.9" height="4.9" fill="#0D0D0D"/><rect x="14.700000000000001" y="39.2" width="4.9" height="4.9" fill="#0D0D0D"/><rect x="24.5" y="39.2" width="4.9" height="4.9" fill="#0D0D0D"/><rect x="29.400000000000002" y="39.2" width="4.9" height="4.9" fill="#0D0D0D"/><rect x="39.2" y="39.2" width="4.9" height="4.9" fill="#0D0D0D"/><rect x="49.0" y="39.2" width="4.9" height="4.9" fill="#0D0D0D"/><rect x="53.900000000000006" y="39.2" width="4.9" height="4.9" fill="#0D0D0D"/><rect x="9.8" y="44.1" width="4.9" height="4.9" fill="#0D0D0D"/><rect x="19.6" y="44.1" width="4.9" height="4.9" fill="#0D0D0D"/><rect x="24.5" y="44.1" width="4.9" height="4.9" fill="#0D0D0D"/><rect x="44.1" y="44.1" width="4.9" height="4.9" fill="#0D0D0D"/><rect x="53.900000000000006" y="44.1" width="4.9" height="4.9" fill="#0D0D0D"/><rect x="58.800000000000004" y="44.1" width="4.9" height="4.9" fill="#0D0D0D"/><rect x="0.0" y="49.0" width="4.9" height="4.9" fill="#0D0D0D"/><rect x="4.9" y="49.0" width="4.9" height="4.9" fill="#0D0D0D"/><rect x="9.8" y="49.0" width="4.9" height="4.9" fill="#0D0D0D"/><rect x="14.700000000000001" y="49.0" width="4.9" height="4.9" fill="#0D0D0D"/><rect x="24.5" y="49.0" width="4.9" height="4.9" fill="#0D0D0D"/><rect x="34.300000000000004" y="49.0" width="4.9" height="4.9" fill="#0D0D0D"/><rect x="39.2" y="49.0" width="4.9" height="4.9" fill="#0D0D0D"/><rect x="53.900000000000006" y="49.0" width="4.9" height="4.9" fill="#0D0D0D"/><rect x="4.9" y="53.900000000000006" width="4.9" height="4.9" fill="#0D0D0D"/><rect x="19.6" y="53.900000000000006" width="4.9" height="4.9" fill="#0D0D0D"/><rect x="29.400000000000002" y="53.900000000000006" width="4.9" height="4.9" fill="#0D0D0D"/><rect x="39.2" y="53.900000000000006" width="4.9" height="4.9" fill="#0D0D0D"/><rect x="44.1" y="53.900000000000006" width="4.9" height="4.9" fill="#0D0D0D"/><rect x="49.0" y="53.900000000000006" width="4.9" height="4.9" fill="#0D0D0D"/><rect x="0.0" y="58.800000000000004" width="4.9" height="4.9" fill="#0D0D0D"/><rect x="4.9" y="58.800000000000004" width="4.9" height="4.9" fill="#0D0D0D"/><rect x="9.8" y="58.800000000000004" width="4.9" height="4.9" fill="#0D0D0D"/><rect x="24.5" y="58.800000000000004" width="4.9" height="4.9" fill="#0D0D0D"/><rect x="29.400000000000002" y="58.800000000000004" width="4.9" height="4.9" fill="#0D0D0D"/><rect x="39.2" y="58.800000000000004" width="4.9" height="4.9" fill="#0D0D0D"/><rect x="44.1" y="58.800000000000004" width="4.9" height="4.9" fill="#0D0D0D"/><rect x="53.900000000000006" y="58.800000000000004" width="4.9" height="4.9" fill="#0D0D0D"/><rect x="58.800000000000004" y="58.800000000000004" width="4.9" height="4.9" fill="#0D0D0D"/></g></g>
</svg>